<svg xmlns="http://www.w3.org/2000/svg" width="38.7" height="43" viewBox="0 0 38.7 43">
  <g id="notification1" transform="translate(-40 -16)">
    <path id="Path_1" data-name="Path 1" d="M216.6,60.3a4.3,4.3,0,1,0-4.3,4.3A4.3,4.3,0,0,0,216.6,60.3Zm-7.167,0a2.867,2.867,0,1,1,2.867,2.867A2.867,2.867,0,0,1,209.433,60.3Z" transform="translate(-152.95 -36.417)" fill="#f02930"/>
    <path id="Path_2" data-name="Path 2" d="M175.472,35.937a.717.717,0,0,0,.822,0,22.808,22.808,0,0,0,3.713-3.431c2.459-2.828,3.759-5.809,3.759-8.622a7.883,7.883,0,1,0-15.767,0c0,2.813,1.3,5.794,3.759,8.622a22.807,22.807,0,0,0,3.713,3.431Zm.411-18.5a6.457,6.457,0,0,1,6.45,6.45c0,5.128-4.97,9.409-6.45,10.569-1.482-1.159-6.45-5.432-6.45-10.569A6.457,6.457,0,0,1,175.883,17.433Z" transform="translate(-116.533 0)" fill="#f02930"/>
    <path id="Path_3" data-name="Path 3" d="M0,0H1.433V1.5H0Z" transform="matrix(0.294, -0.956, 0.956, 0.294, 49.83, 53.229)" fill="#f02930"/>
    <path id="Path_4" data-name="Path 4" d="M0,0H1.433V1.5H0Z" transform="matrix(0.294, -0.956, 0.956, 0.294, 52.696, 54.108)" fill="#f02930"/>
    <path id="Path_5" data-name="Path 5" d="M0,0H1.433V1.5H0Z" transform="matrix(0.294, -0.956, 0.956, 0.294, 55.563, 54.993)" fill="#f02930"/>
    <path id="Path_6" data-name="Path 6" d="M78.194,166.739l-10.75-3.308-.422,1.37,8.524,2.623-16.2,4.984-16.2-4.984,8.524-2.623-.422-1.37-10.75,3.308a.717.717,0,0,0-.506.685v19.35a.717.717,0,0,0,.506.685l18.633,5.733a.717.717,0,0,0,.422,0l18.633-5.733a.717.717,0,0,0,.506-.685v-19.35a.717.717,0,0,0-.506-.685Zm-36.761,1.655,17.2,5.292v17.85l-17.2-5.292Zm18.633,23.143v-17.85l17.2-5.292v17.85Z" transform="translate(0 -134.224)" fill="#f02930"/>
    <path id="Path_7" data-name="Path 7" d="M0,0H1.5V1.433H0Z" transform="matrix(0.956, -0.294, 0.294, 0.956, 68.461, 51.875)" fill="#f02930"/>
    <path id="Path_8" data-name="Path 8" d="M0,0H1.5V1.433H0Z" transform="matrix(0.956, -0.294, 0.294, 0.956, 71.326, 50.995)" fill="#f02930"/>
    <path id="Path_9" data-name="Path 9" d="M0,0H1.5V1.433H0Z" transform="matrix(0.956, -0.294, 0.294, 0.956, 74.195, 50.111)" fill="#f02930"/>
    <path id="Path_10" data-name="Path 10" d="M111.883,265.683a.717.717,0,0,0,.717-.717v-3.583a.717.717,0,0,0-.506-.685l-7.167-2.205a.717.717,0,0,0-.927.685v3.583a.717.717,0,0,0,.506.685l7.167,2.205A.717.717,0,0,0,111.883,265.683ZM111.167,264l-5.733-1.764v-2.084l5.733,1.764Z" transform="translate(-58.267 -220.741)" fill="#f02930"/>
    <path id="Path_11" data-name="Path 11" d="M320.6,262.761v-3.583a.717.717,0,0,0-.927-.685l-7.167,2.205a.717.717,0,0,0-.506.685v3.583a.717.717,0,0,0,.927.685l7.167-2.205A.717.717,0,0,0,320.6,262.761Zm-1.433-.529L313.433,264v-2.084l5.733-1.764Z" transform="translate(-247.633 -220.741)" fill="#f02930"/>
  </g>
</svg>
